<mxfile modified="2020-07-29T12:51:31.291Z" host="app.diagrams.net" agent="5.0 (Windows NT 10.0; Win64; x64) AppleWebKit/537.36 (KHTML, like Gecko) Chrome/84.0.4147.105 Safari/537.36" etag="69hb7chmRTC6OnbvfCUr" version="13.5.5" type="github" pages="6">
  <diagram id="DmpyCd74bjlV9wt-8f_q" name="ENI">
    <mxGraphModel dx="1422" dy="834" grid="1" gridSize="10" guides="1" tooltips="1" connect="1" arrows="1" fold="1" page="1" pageScale="1" pageWidth="1169" pageHeight="827" math="0" shadow="0">
      <root>
        <mxCell id="geGkwwMz8ecG4chbJf0R-0" />
        <mxCell id="geGkwwMz8ecG4chbJf0R-1" parent="geGkwwMz8ecG4chbJf0R-0" />
        <mxCell id="W6dCeKW5O-_zJl9l5ZzE-0" value="Architecting Day 2" style="text;html=1;resizable=0;points=[];autosize=1;align=left;verticalAlign=top;spacingTop=-4;fontSize=30;fontStyle=1" parent="geGkwwMz8ecG4chbJf0R-1" vertex="1">
          <mxGeometry x="56.5" y="64.5" width="280" height="40" as="geometry" />
        </mxCell>
        <mxCell id="W6dCeKW5O-_zJl9l5ZzE-1" value="EC2 INSTANCE" style="rounded=1;whiteSpace=wrap;html=1;align=left;" parent="geGkwwMz8ecG4chbJf0R-1" vertex="1">
          <mxGeometry x="230" y="190" width="120" height="60" as="geometry" />
        </mxCell>
        <mxCell id="W6dCeKW5O-_zJl9l5ZzE-2" value="" style="endArrow=none;html=1;" parent="geGkwwMz8ecG4chbJf0R-1" edge="1">
          <mxGeometry width="50" height="50" relative="1" as="geometry">
            <mxPoint x="120" y="360" as="sourcePoint" />
            <mxPoint x="470" y="360" as="targetPoint" />
          </mxGeometry>
        </mxCell>
        <mxCell id="W6dCeKW5O-_zJl9l5ZzE-3" value="private subnet - PRODUCTION NETWORK" style="edgeLabel;html=1;align=center;verticalAlign=middle;resizable=0;points=[];" parent="W6dCeKW5O-_zJl9l5ZzE-2" vertex="1" connectable="0">
          <mxGeometry x="0.1633" y="1" relative="1" as="geometry">
            <mxPoint as="offset" />
          </mxGeometry>
        </mxCell>
        <mxCell id="W6dCeKW5O-_zJl9l5ZzE-4" value="eni" style="rounded=1;whiteSpace=wrap;html=1;" parent="geGkwwMz8ecG4chbJf0R-1" vertex="1">
          <mxGeometry x="230" y="250" width="40" height="20" as="geometry" />
        </mxCell>
        <mxCell id="W6dCeKW5O-_zJl9l5ZzE-5" value="" style="endArrow=none;html=1;entryX=0.5;entryY=1;entryDx=0;entryDy=0;" parent="geGkwwMz8ecG4chbJf0R-1" target="W6dCeKW5O-_zJl9l5ZzE-4" edge="1">
          <mxGeometry width="50" height="50" relative="1" as="geometry">
            <mxPoint x="280" y="360" as="sourcePoint" />
            <mxPoint x="450" y="270" as="targetPoint" />
          </mxGeometry>
        </mxCell>
        <mxCell id="W6dCeKW5O-_zJl9l5ZzE-6" value="" style="endArrow=none;html=1;" parent="geGkwwMz8ecG4chbJf0R-1" edge="1">
          <mxGeometry width="50" height="50" relative="1" as="geometry">
            <mxPoint x="340" y="320" as="sourcePoint" />
            <mxPoint x="570" y="320" as="targetPoint" />
          </mxGeometry>
        </mxCell>
        <mxCell id="W6dCeKW5O-_zJl9l5ZzE-7" value="private subnet - BACKUP NETWORK" style="edgeLabel;html=1;align=center;verticalAlign=middle;resizable=0;points=[];" parent="W6dCeKW5O-_zJl9l5ZzE-6" vertex="1" connectable="0">
          <mxGeometry x="-0.1043" y="-3" relative="1" as="geometry">
            <mxPoint as="offset" />
          </mxGeometry>
        </mxCell>
        <mxCell id="W6dCeKW5O-_zJl9l5ZzE-8" value="eni" style="rounded=1;whiteSpace=wrap;html=1;" parent="geGkwwMz8ecG4chbJf0R-1" vertex="1">
          <mxGeometry x="280" y="250" width="40" height="20" as="geometry" />
        </mxCell>
        <mxCell id="W6dCeKW5O-_zJl9l5ZzE-9" value="" style="endArrow=none;html=1;entryX=0.25;entryY=1;entryDx=0;entryDy=0;" parent="geGkwwMz8ecG4chbJf0R-1" target="W6dCeKW5O-_zJl9l5ZzE-8" edge="1">
          <mxGeometry width="50" height="50" relative="1" as="geometry">
            <mxPoint x="350" y="320" as="sourcePoint" />
            <mxPoint x="260" y="280" as="targetPoint" />
          </mxGeometry>
        </mxCell>
        <mxCell id="W6dCeKW5O-_zJl9l5ZzE-10" value="EC2 INSTANCE" style="rounded=1;whiteSpace=wrap;html=1;align=left;" parent="geGkwwMz8ecG4chbJf0R-1" vertex="1">
          <mxGeometry x="550" y="90" width="120" height="60" as="geometry" />
        </mxCell>
      </root>
    </mxGraphModel>
  </diagram>
  <diagram id="ZigDL1jpP-Hjr5NY8T4U" name="NACL">
    <mxGraphModel dx="1422" dy="834" grid="1" gridSize="10" guides="1" tooltips="1" connect="1" arrows="1" fold="1" page="1" pageScale="1" pageWidth="1169" pageHeight="827" math="0" shadow="0">
      <root>
        <mxCell id="kdlMGPgv3UMDfjnj-tC7-0" />
        <mxCell id="kdlMGPgv3UMDfjnj-tC7-1" parent="kdlMGPgv3UMDfjnj-tC7-0" />
        <mxCell id="kdlMGPgv3UMDfjnj-tC7-2" value="PUBLIC SUBNET1" style="rounded=1;whiteSpace=wrap;html=1;align=left;" parent="kdlMGPgv3UMDfjnj-tC7-1" vertex="1">
          <mxGeometry x="170" y="190" width="120" height="60" as="geometry" />
        </mxCell>
        <mxCell id="kdlMGPgv3UMDfjnj-tC7-3" value="PRIVATE SUBNET 1" style="rounded=1;whiteSpace=wrap;html=1;align=left;" parent="kdlMGPgv3UMDfjnj-tC7-1" vertex="1">
          <mxGeometry x="170" y="360" width="120" height="60" as="geometry" />
        </mxCell>
        <mxCell id="kdlMGPgv3UMDfjnj-tC7-4" value="PUBLIC SUBNET2" style="rounded=1;whiteSpace=wrap;html=1;align=left;" parent="kdlMGPgv3UMDfjnj-tC7-1" vertex="1">
          <mxGeometry x="430" y="190" width="120" height="60" as="geometry" />
        </mxCell>
        <mxCell id="kdlMGPgv3UMDfjnj-tC7-5" value="PRIVATE SUBNET 2" style="rounded=1;whiteSpace=wrap;html=1;align=left;" parent="kdlMGPgv3UMDfjnj-tC7-1" vertex="1">
          <mxGeometry x="430" y="360" width="120" height="60" as="geometry" />
        </mxCell>
        <mxCell id="kdlMGPgv3UMDfjnj-tC7-6" value="VPC ROUTER&lt;br&gt;NACL&lt;br&gt;RULES&lt;br&gt;ENFORCED&lt;br&gt;HERE" style="outlineConnect=0;fontColor=#232F3E;gradientColor=none;fillColor=#5A30B5;strokeColor=none;dashed=0;verticalLabelPosition=bottom;verticalAlign=top;align=center;html=1;fontSize=12;fontStyle=0;aspect=fixed;pointerEvents=1;shape=mxgraph.aws4.customer_gateway;" parent="kdlMGPgv3UMDfjnj-tC7-1" vertex="1">
          <mxGeometry x="330" y="270" width="78" height="78" as="geometry" />
        </mxCell>
        <mxCell id="kdlMGPgv3UMDfjnj-tC7-7" value="" style="endArrow=none;html=1;exitX=0.985;exitY=0.569;exitDx=0;exitDy=0;exitPerimeter=0;" parent="kdlMGPgv3UMDfjnj-tC7-1" source="kdlMGPgv3UMDfjnj-tC7-3" target="kdlMGPgv3UMDfjnj-tC7-6" edge="1">
          <mxGeometry width="50" height="50" relative="1" as="geometry">
            <mxPoint x="420" y="390" as="sourcePoint" />
            <mxPoint x="470" y="340" as="targetPoint" />
          </mxGeometry>
        </mxCell>
        <mxCell id="kdlMGPgv3UMDfjnj-tC7-8" value="" style="endArrow=none;html=1;exitX=0;exitY=0.5;exitDx=0;exitDy=0;" parent="kdlMGPgv3UMDfjnj-tC7-1" source="kdlMGPgv3UMDfjnj-tC7-5" target="kdlMGPgv3UMDfjnj-tC7-6" edge="1">
          <mxGeometry width="50" height="50" relative="1" as="geometry">
            <mxPoint x="298.20000000000005" y="404.14" as="sourcePoint" />
            <mxPoint x="341.98801973220566" y="358" as="targetPoint" />
          </mxGeometry>
        </mxCell>
        <mxCell id="kdlMGPgv3UMDfjnj-tC7-9" value="" style="endArrow=none;html=1;" parent="kdlMGPgv3UMDfjnj-tC7-1" source="kdlMGPgv3UMDfjnj-tC7-6" target="kdlMGPgv3UMDfjnj-tC7-4" edge="1">
          <mxGeometry width="50" height="50" relative="1" as="geometry">
            <mxPoint x="420" y="390" as="sourcePoint" />
            <mxPoint x="470" y="340" as="targetPoint" />
          </mxGeometry>
        </mxCell>
        <mxCell id="kdlMGPgv3UMDfjnj-tC7-10" value="" style="endArrow=none;html=1;" parent="kdlMGPgv3UMDfjnj-tC7-1" source="kdlMGPgv3UMDfjnj-tC7-2" target="kdlMGPgv3UMDfjnj-tC7-6" edge="1">
          <mxGeometry width="50" height="50" relative="1" as="geometry">
            <mxPoint x="418" y="290.31404958677683" as="sourcePoint" />
            <mxPoint x="459.2134831460676" y="260" as="targetPoint" />
          </mxGeometry>
        </mxCell>
        <mxCell id="kdlMGPgv3UMDfjnj-tC7-11" value="EC2&lt;br&gt;VM1" style="outlineConnect=0;fontColor=#232F3E;gradientColor=#F78E04;gradientDirection=north;fillColor=#D05C17;strokeColor=#ffffff;dashed=0;verticalLabelPosition=bottom;verticalAlign=top;align=center;html=1;fontSize=12;fontStyle=0;aspect=fixed;shape=mxgraph.aws4.resourceIcon;resIcon=mxgraph.aws4.ec2;" parent="kdlMGPgv3UMDfjnj-tC7-1" vertex="1">
          <mxGeometry x="110" y="162" width="28" height="28" as="geometry" />
        </mxCell>
        <mxCell id="kdlMGPgv3UMDfjnj-tC7-12" value="EC2&lt;br&gt;VM2" style="outlineConnect=0;fontColor=#232F3E;gradientColor=#F78E04;gradientDirection=north;fillColor=#D05C17;strokeColor=#ffffff;dashed=0;verticalLabelPosition=bottom;verticalAlign=top;align=center;html=1;fontSize=12;fontStyle=0;aspect=fixed;shape=mxgraph.aws4.resourceIcon;resIcon=mxgraph.aws4.ec2;" parent="kdlMGPgv3UMDfjnj-tC7-1" vertex="1">
          <mxGeometry x="142" y="162" width="28" height="28" as="geometry" />
        </mxCell>
        <mxCell id="kdlMGPgv3UMDfjnj-tC7-13" value="EC2&lt;br&gt;VM3" style="outlineConnect=0;fontColor=#232F3E;gradientColor=#F78E04;gradientDirection=north;fillColor=#D05C17;strokeColor=#ffffff;dashed=0;verticalLabelPosition=bottom;verticalAlign=top;align=center;html=1;fontSize=12;fontStyle=0;aspect=fixed;shape=mxgraph.aws4.resourceIcon;resIcon=mxgraph.aws4.ec2;" parent="kdlMGPgv3UMDfjnj-tC7-1" vertex="1">
          <mxGeometry x="130" y="350" width="28" height="28" as="geometry" />
        </mxCell>
      </root>
    </mxGraphModel>
  </diagram>
  <diagram id="ZOfQ5ZkcwP34BTH97PYg" name="VPC ENDPOINTS">
    <mxGraphModel dx="1422" dy="834" grid="1" gridSize="10" guides="1" tooltips="1" connect="1" arrows="1" fold="1" page="1" pageScale="1" pageWidth="1169" pageHeight="827" math="0" shadow="0">
      <root>
        <mxCell id="-yslmopT9JiHxZfP3AqJ-0" />
        <mxCell id="-yslmopT9JiHxZfP3AqJ-1" parent="-yslmopT9JiHxZfP3AqJ-0" />
        <mxCell id="-yslmopT9JiHxZfP3AqJ-3" value="AWS Cloud" style="points=[[0,0],[0.25,0],[0.5,0],[0.75,0],[1,0],[1,0.25],[1,0.5],[1,0.75],[1,1],[0.75,1],[0.5,1],[0.25,1],[0,1],[0,0.75],[0,0.5],[0,0.25]];outlineConnect=0;gradientColor=none;html=1;whiteSpace=wrap;fontSize=12;fontStyle=0;shape=mxgraph.aws4.group;grIcon=mxgraph.aws4.group_aws_cloud_alt;strokeColor=#232F3E;fillColor=none;verticalAlign=top;align=left;spacingLeft=30;fontColor=#232F3E;dashed=0;" parent="-yslmopT9JiHxZfP3AqJ-1" vertex="1">
          <mxGeometry x="40" y="40" width="930" height="540" as="geometry" />
        </mxCell>
        <mxCell id="-yslmopT9JiHxZfP3AqJ-2" value="VPC" style="points=[[0,0],[0.25,0],[0.5,0],[0.75,0],[1,0],[1,0.25],[1,0.5],[1,0.75],[1,1],[0.75,1],[0.5,1],[0.25,1],[0,1],[0,0.75],[0,0.5],[0,0.25]];outlineConnect=0;gradientColor=none;html=1;whiteSpace=wrap;fontSize=12;fontStyle=0;shape=mxgraph.aws4.group;grIcon=mxgraph.aws4.group_vpc;strokeColor=#248814;fillColor=none;verticalAlign=top;align=left;spacingLeft=30;fontColor=#AAB7B8;dashed=0;" parent="-yslmopT9JiHxZfP3AqJ-1" vertex="1">
          <mxGeometry x="180" y="200" width="470" height="290" as="geometry" />
        </mxCell>
        <mxCell id="-yslmopT9JiHxZfP3AqJ-4" value="EC2" style="outlineConnect=0;fontColor=#232F3E;gradientColor=#F78E04;gradientDirection=north;fillColor=#D05C17;strokeColor=#ffffff;dashed=0;verticalLabelPosition=bottom;verticalAlign=top;align=center;html=1;fontSize=12;fontStyle=0;aspect=fixed;shape=mxgraph.aws4.resourceIcon;resIcon=mxgraph.aws4.ec2;" parent="-yslmopT9JiHxZfP3AqJ-1" vertex="1">
          <mxGeometry x="200" y="300" width="78" height="78" as="geometry" />
        </mxCell>
        <mxCell id="-yslmopT9JiHxZfP3AqJ-5" value="S3 BUCKET" style="outlineConnect=0;fontColor=#232F3E;gradientColor=#60A337;gradientDirection=north;fillColor=#277116;strokeColor=#ffffff;dashed=0;verticalLabelPosition=bottom;verticalAlign=top;align=center;html=1;fontSize=12;fontStyle=0;aspect=fixed;shape=mxgraph.aws4.resourceIcon;resIcon=mxgraph.aws4.s3;" parent="-yslmopT9JiHxZfP3AqJ-1" vertex="1">
          <mxGeometry x="780" y="300" width="78" height="78" as="geometry" />
        </mxCell>
        <mxCell id="-yslmopT9JiHxZfP3AqJ-10" value="https://bucketname.s3.amazonaws.com" style="text;html=1;strokeColor=none;fillColor=none;align=center;verticalAlign=middle;whiteSpace=wrap;rounded=0;fontStyle=1;fontSize=15;" parent="-yslmopT9JiHxZfP3AqJ-1" vertex="1">
          <mxGeometry x="850" y="404" width="40" height="20" as="geometry" />
        </mxCell>
        <mxCell id="-yslmopT9JiHxZfP3AqJ-11" value="S3 GATEWAY&lt;br&gt;ENDPOINT" style="outlineConnect=0;fontColor=#232F3E;gradientColor=none;fillColor=#5A30B5;strokeColor=none;dashed=0;verticalLabelPosition=bottom;verticalAlign=top;align=center;html=1;fontSize=12;fontStyle=0;aspect=fixed;pointerEvents=1;shape=mxgraph.aws4.endpoints;" parent="-yslmopT9JiHxZfP3AqJ-1" vertex="1">
          <mxGeometry x="600" y="300" width="78" height="78" as="geometry" />
        </mxCell>
        <mxCell id="-yslmopT9JiHxZfP3AqJ-12" value="" style="shape=flexArrow;endArrow=classic;html=1;fontSize=15;" parent="-yslmopT9JiHxZfP3AqJ-1" source="-yslmopT9JiHxZfP3AqJ-4" target="-yslmopT9JiHxZfP3AqJ-13" edge="1">
          <mxGeometry width="50" height="50" relative="1" as="geometry">
            <mxPoint x="550" y="360" as="sourcePoint" />
            <mxPoint x="600" y="310" as="targetPoint" />
          </mxGeometry>
        </mxCell>
        <mxCell id="-yslmopT9JiHxZfP3AqJ-13" value="" style="outlineConnect=0;fontColor=#232F3E;gradientColor=#4D72F3;gradientDirection=north;fillColor=#3334B9;strokeColor=#ffffff;dashed=0;verticalLabelPosition=bottom;verticalAlign=top;align=center;html=1;fontSize=12;fontStyle=0;aspect=fixed;shape=mxgraph.aws4.resourceIcon;resIcon=mxgraph.aws4.dynamodb;" parent="-yslmopT9JiHxZfP3AqJ-1" vertex="1">
          <mxGeometry x="780" y="160" width="78" height="78" as="geometry" />
        </mxCell>
        <mxCell id="-yslmopT9JiHxZfP3AqJ-14" value="DYNAMODB GATEWAY&lt;br&gt;ENDPOINT" style="outlineConnect=0;fontColor=#232F3E;gradientColor=none;fillColor=#5A30B5;strokeColor=none;dashed=0;verticalLabelPosition=bottom;verticalAlign=top;align=center;html=1;fontSize=12;fontStyle=0;aspect=fixed;pointerEvents=1;shape=mxgraph.aws4.endpoints;" parent="-yslmopT9JiHxZfP3AqJ-1" vertex="1">
          <mxGeometry x="600" y="170" width="78" height="78" as="geometry" />
        </mxCell>
        <mxCell id="-yslmopT9JiHxZfP3AqJ-15" value="INTERFACE ENDPOINT" style="outlineConnect=0;fontColor=#232F3E;gradientColor=none;fillColor=#5A30B5;strokeColor=none;dashed=0;verticalLabelPosition=bottom;verticalAlign=top;align=center;html=1;fontSize=12;fontStyle=0;aspect=fixed;pointerEvents=1;shape=mxgraph.aws4.elastic_network_interface;" parent="-yslmopT9JiHxZfP3AqJ-1" vertex="1">
          <mxGeometry x="507" y="460" width="78" height="78" as="geometry" />
        </mxCell>
        <mxCell id="-yslmopT9JiHxZfP3AqJ-16" value="" style="outlineConnect=0;fontColor=#232F3E;gradientColor=#4AB29A;gradientDirection=north;fillColor=#116D5B;strokeColor=#ffffff;dashed=0;verticalLabelPosition=bottom;verticalAlign=top;align=center;html=1;fontSize=12;fontStyle=0;aspect=fixed;shape=mxgraph.aws4.resourceIcon;resIcon=mxgraph.aws4.codeguru_2;" parent="-yslmopT9JiHxZfP3AqJ-1" vertex="1">
          <mxGeometry x="780" y="470" width="78" height="78" as="geometry" />
        </mxCell>
        <mxCell id="-yslmopT9JiHxZfP3AqJ-19" value="SUBNET" style="rounded=1;whiteSpace=wrap;html=1;fontSize=15;" parent="-yslmopT9JiHxZfP3AqJ-1" vertex="1">
          <mxGeometry x="230" y="404" width="320" height="16" as="geometry" />
        </mxCell>
        <mxCell id="-yslmopT9JiHxZfP3AqJ-20" value="" style="endArrow=none;html=1;fontSize=15;" parent="-yslmopT9JiHxZfP3AqJ-1" source="-yslmopT9JiHxZfP3AqJ-15" target="-yslmopT9JiHxZfP3AqJ-19" edge="1">
          <mxGeometry width="50" height="50" relative="1" as="geometry">
            <mxPoint x="550" y="360" as="sourcePoint" />
            <mxPoint x="600" y="310" as="targetPoint" />
          </mxGeometry>
        </mxCell>
        <mxCell id="-yslmopT9JiHxZfP3AqJ-21" value="" style="endArrow=none;html=1;fontSize=15;" parent="-yslmopT9JiHxZfP3AqJ-1" source="-yslmopT9JiHxZfP3AqJ-15" target="-yslmopT9JiHxZfP3AqJ-16" edge="1">
          <mxGeometry width="50" height="50" relative="1" as="geometry">
            <mxPoint x="517" y="487.25" as="sourcePoint" />
            <mxPoint x="414.344827586207" y="430" as="targetPoint" />
          </mxGeometry>
        </mxCell>
      </root>
    </mxGraphModel>
  </diagram>
  <diagram id="nKn5NdxlUfPM76Pd9OpQ" name="IAM ROLE">
    <mxGraphModel dx="1422" dy="834" grid="1" gridSize="10" guides="1" tooltips="1" connect="1" arrows="1" fold="1" page="1" pageScale="1" pageWidth="1169" pageHeight="827" math="0" shadow="0">
      <root>
        <mxCell id="EbwpszcyQs0uBG0iZk_g-0" />
        <mxCell id="EbwpszcyQs0uBG0iZk_g-1" parent="EbwpszcyQs0uBG0iZk_g-0" />
        <mxCell id="EbwpszcyQs0uBG0iZk_g-2" value="IAM USER" style="outlineConnect=0;fontColor=#232F3E;gradientColor=none;fillColor=#C7131F;strokeColor=none;dashed=0;verticalLabelPosition=bottom;verticalAlign=top;align=center;html=1;fontSize=12;fontStyle=0;aspect=fixed;pointerEvents=1;shape=mxgraph.aws4.organizations_account;" parent="EbwpszcyQs0uBG0iZk_g-1" vertex="1">
          <mxGeometry x="175.39" y="310" width="74" height="78" as="geometry" />
        </mxCell>
        <mxCell id="EbwpszcyQs0uBG0iZk_g-3" value="IAM ROLE" style="outlineConnect=0;fontColor=#232F3E;gradientColor=none;fillColor=#C7131F;strokeColor=none;dashed=0;verticalLabelPosition=bottom;verticalAlign=top;align=center;html=1;fontSize=12;fontStyle=0;aspect=fixed;pointerEvents=1;shape=mxgraph.aws4.role;" parent="EbwpszcyQs0uBG0iZk_g-1" vertex="1">
          <mxGeometry x="233.39" y="26" width="78" height="44" as="geometry" />
        </mxCell>
        <mxCell id="EbwpszcyQs0uBG0iZk_g-4" value="IAM GROUP" style="outlineConnect=0;fontColor=#232F3E;gradientColor=none;fillColor=#C7131F;strokeColor=none;dashed=0;verticalLabelPosition=bottom;verticalAlign=top;align=center;html=1;fontSize=12;fontStyle=0;aspect=fixed;pointerEvents=1;shape=mxgraph.aws4.organizations_organizational_unit;" parent="EbwpszcyQs0uBG0iZk_g-1" vertex="1">
          <mxGeometry x="160" y="500" width="104.78" height="90" as="geometry" />
        </mxCell>
        <mxCell id="EbwpszcyQs0uBG0iZk_g-5" value="" style="outlineConnect=0;fontColor=#232F3E;gradientColor=none;fillColor=#C7131F;strokeColor=none;dashed=0;verticalLabelPosition=bottom;verticalAlign=top;align=center;html=1;fontSize=12;fontStyle=0;aspect=fixed;pointerEvents=1;shape=mxgraph.aws4.permissions;" parent="EbwpszcyQs0uBG0iZk_g-1" vertex="1">
          <mxGeometry x="249.39" y="590" width="62" height="78" as="geometry" />
        </mxCell>
        <mxCell id="EbwpszcyQs0uBG0iZk_g-6" value="" style="outlineConnect=0;fontColor=#232F3E;gradientColor=none;fillColor=#C7131F;strokeColor=none;dashed=0;verticalLabelPosition=bottom;verticalAlign=top;align=center;html=1;fontSize=12;fontStyle=0;aspect=fixed;pointerEvents=1;shape=mxgraph.aws4.permissions;" parent="EbwpszcyQs0uBG0iZk_g-1" vertex="1">
          <mxGeometry x="580" y="580" width="62" height="78" as="geometry" />
        </mxCell>
        <mxCell id="EbwpszcyQs0uBG0iZk_g-7" value="" style="endArrow=none;html=1;fontSize=15;" parent="EbwpszcyQs0uBG0iZk_g-1" target="EbwpszcyQs0uBG0iZk_g-3" edge="1">
          <mxGeometry width="50" height="50" relative="1" as="geometry">
            <mxPoint x="610" y="570" as="sourcePoint" />
            <mxPoint x="610" y="400" as="targetPoint" />
          </mxGeometry>
        </mxCell>
        <mxCell id="EbwpszcyQs0uBG0iZk_g-10" value="EC2 INSTANCE" style="outlineConnect=0;fontColor=#232F3E;gradientColor=#F78E04;gradientDirection=north;fillColor=#D05C17;strokeColor=#ffffff;dashed=0;verticalLabelPosition=bottom;verticalAlign=top;align=center;html=1;fontSize=12;fontStyle=0;aspect=fixed;shape=mxgraph.aws4.resourceIcon;resIcon=mxgraph.aws4.ec2;" parent="EbwpszcyQs0uBG0iZk_g-1" vertex="1">
          <mxGeometry x="220" y="100" width="78" height="78" as="geometry" />
        </mxCell>
        <mxCell id="EbwpszcyQs0uBG0iZk_g-11" value="S3 BUCKET" style="outlineConnect=0;fontColor=#232F3E;gradientColor=#60A337;gradientDirection=north;fillColor=#277116;strokeColor=#ffffff;dashed=0;verticalLabelPosition=bottom;verticalAlign=top;align=center;html=1;fontSize=12;fontStyle=0;aspect=fixed;shape=mxgraph.aws4.resourceIcon;resIcon=mxgraph.aws4.s3;" parent="EbwpszcyQs0uBG0iZk_g-1" vertex="1">
          <mxGeometry x="950" y="70" width="78" height="78" as="geometry" />
        </mxCell>
        <mxCell id="EbwpszcyQs0uBG0iZk_g-12" value="" style="endArrow=none;html=1;fontSize=15;" parent="EbwpszcyQs0uBG0iZk_g-1" source="EbwpszcyQs0uBG0iZk_g-6" target="EbwpszcyQs0uBG0iZk_g-11" edge="1">
          <mxGeometry width="50" height="50" relative="1" as="geometry">
            <mxPoint x="620" y="420" as="sourcePoint" />
            <mxPoint x="670" y="370" as="targetPoint" />
          </mxGeometry>
        </mxCell>
        <mxCell id="EbwpszcyQs0uBG0iZk_g-13" value="https://bucket.s3.amazonaws.com" style="text;html=1;strokeColor=none;fillColor=none;align=center;verticalAlign=middle;whiteSpace=wrap;rounded=0;fontSize=15;" parent="EbwpszcyQs0uBG0iZk_g-1" vertex="1">
          <mxGeometry x="980" y="190" width="40" height="20" as="geometry" />
        </mxCell>
      </root>
    </mxGraphModel>
  </diagram>
  <diagram id="1zoUsv6aLPdBaJ0KNhAJ" name="Federation">
    <mxGraphModel dx="1422" dy="834" grid="1" gridSize="10" guides="1" tooltips="1" connect="1" arrows="1" fold="1" page="1" pageScale="1" pageWidth="1169" pageHeight="827" math="0" shadow="0">
      <root>
        <mxCell id="GU5W4-ANbT0hcsU9CHmO-0" />
        <mxCell id="GU5W4-ANbT0hcsU9CHmO-1" parent="GU5W4-ANbT0hcsU9CHmO-0" />
        <mxCell id="GU5W4-ANbT0hcsU9CHmO-6" value="" style="rounded=1;whiteSpace=wrap;html=1;align=left;fontSize=15;" parent="GU5W4-ANbT0hcsU9CHmO-1" vertex="1">
          <mxGeometry x="370" y="40" width="710" height="420" as="geometry" />
        </mxCell>
        <mxCell id="GU5W4-ANbT0hcsU9CHmO-2" value="IAM ROLE" style="outlineConnect=0;fontColor=#232F3E;gradientColor=none;fillColor=#C7131F;strokeColor=none;dashed=0;verticalLabelPosition=bottom;verticalAlign=top;align=center;html=1;fontSize=12;fontStyle=0;aspect=fixed;pointerEvents=1;shape=mxgraph.aws4.role;" parent="GU5W4-ANbT0hcsU9CHmO-1" vertex="1">
          <mxGeometry x="700" y="190" width="78" height="44" as="geometry" />
        </mxCell>
        <mxCell id="GU5W4-ANbT0hcsU9CHmO-5" value="" style="outlineConnect=0;fontColor=#232F3E;gradientColor=none;fillColor=#C7131F;strokeColor=none;dashed=0;verticalLabelPosition=bottom;verticalAlign=top;align=center;html=1;fontSize=12;fontStyle=0;aspect=fixed;pointerEvents=1;shape=mxgraph.aws4.managed_ms_ad;" parent="GU5W4-ANbT0hcsU9CHmO-1" vertex="1">
          <mxGeometry x="60" y="250" width="78" height="77" as="geometry" />
        </mxCell>
        <mxCell id="GU5W4-ANbT0hcsU9CHmO-7" value="AD\Alistair&lt;br&gt;member of AD group&lt;br&gt;S3 Admins" style="shape=umlActor;verticalLabelPosition=bottom;verticalAlign=top;html=1;outlineConnect=0;align=left;fontSize=15;" parent="GU5W4-ANbT0hcsU9CHmO-1" vertex="1">
          <mxGeometry x="84" y="340" width="30" height="60" as="geometry" />
        </mxCell>
        <mxCell id="GU5W4-ANbT0hcsU9CHmO-8" value="" style="shape=flexArrow;endArrow=classic;html=1;fontSize=15;" parent="GU5W4-ANbT0hcsU9CHmO-1" target="GU5W4-ANbT0hcsU9CHmO-2" edge="1">
          <mxGeometry width="50" height="50" relative="1" as="geometry">
            <mxPoint x="240" y="450" as="sourcePoint" />
            <mxPoint x="610" y="400" as="targetPoint" />
          </mxGeometry>
        </mxCell>
      </root>
    </mxGraphModel>
  </diagram>
  <diagram id="b8KknYXwJu29kVzHiHFw" name="Troubleshooting IAM Policy">
    <mxGraphModel dx="1422" dy="834" grid="1" gridSize="10" guides="1" tooltips="1" connect="1" arrows="1" fold="1" page="1" pageScale="1" pageWidth="1169" pageHeight="827" math="0" shadow="0">
      <root>
        <mxCell id="KI1PTY3ZPuz4yPuYzxjC-0" />
        <mxCell id="KI1PTY3ZPuz4yPuYzxjC-1" parent="KI1PTY3ZPuz4yPuYzxjC-0" />
        <mxCell id="KI1PTY3ZPuz4yPuYzxjC-2" value="IAM USER" style="shape=umlActor;verticalLabelPosition=bottom;verticalAlign=top;html=1;outlineConnect=0;align=left;fontSize=15;" parent="KI1PTY3ZPuz4yPuYzxjC-1" vertex="1">
          <mxGeometry x="150" y="230" width="30" height="60" as="geometry" />
        </mxCell>
        <mxCell id="KI1PTY3ZPuz4yPuYzxjC-3" value="" style="outlineConnect=0;fontColor=#232F3E;gradientColor=#60A337;gradientDirection=north;fillColor=#277116;strokeColor=#ffffff;dashed=0;verticalLabelPosition=bottom;verticalAlign=top;align=center;html=1;fontSize=12;fontStyle=0;aspect=fixed;shape=mxgraph.aws4.resourceIcon;resIcon=mxgraph.aws4.s3;" parent="KI1PTY3ZPuz4yPuYzxjC-1" vertex="1">
          <mxGeometry x="920" y="250" width="78" height="78" as="geometry" />
        </mxCell>
        <mxCell id="KI1PTY3ZPuz4yPuYzxjC-4" value="IAM POLICY" style="outlineConnect=0;fontColor=#232F3E;gradientColor=none;fillColor=#C7131F;strokeColor=none;dashed=0;verticalLabelPosition=bottom;verticalAlign=top;align=center;html=1;fontSize=12;fontStyle=0;aspect=fixed;pointerEvents=1;shape=mxgraph.aws4.permissions;" parent="KI1PTY3ZPuz4yPuYzxjC-1" vertex="1">
          <mxGeometry x="150" y="400" width="62" height="78" as="geometry" />
        </mxCell>
        <mxCell id="KI1PTY3ZPuz4yPuYzxjC-5" value="IAM GROUP" style="outlineConnect=0;fontColor=#232F3E;gradientColor=none;fillColor=#C7131F;strokeColor=none;dashed=0;verticalLabelPosition=bottom;verticalAlign=top;align=center;html=1;fontSize=12;fontStyle=0;aspect=fixed;pointerEvents=1;shape=mxgraph.aws4.organizations_organizational_unit;" parent="KI1PTY3ZPuz4yPuYzxjC-1" vertex="1">
          <mxGeometry x="340" y="227" width="78" height="67" as="geometry" />
        </mxCell>
        <mxCell id="KI1PTY3ZPuz4yPuYzxjC-6" value="IAM POLICY" style="outlineConnect=0;fontColor=#232F3E;gradientColor=none;fillColor=#C7131F;strokeColor=none;dashed=0;verticalLabelPosition=bottom;verticalAlign=top;align=center;html=1;fontSize=12;fontStyle=0;aspect=fixed;pointerEvents=1;shape=mxgraph.aws4.permissions;" parent="KI1PTY3ZPuz4yPuYzxjC-1" vertex="1">
          <mxGeometry x="356" y="400" width="62" height="78" as="geometry" />
        </mxCell>
        <mxCell id="KI1PTY3ZPuz4yPuYzxjC-7" value="IDENTITY BASED POLICIES" style="text;html=1;strokeColor=none;fillColor=none;align=center;verticalAlign=middle;whiteSpace=wrap;rounded=0;fontSize=15;" parent="KI1PTY3ZPuz4yPuYzxjC-1" vertex="1">
          <mxGeometry x="260" y="530" width="40" height="20" as="geometry" />
        </mxCell>
        <mxCell id="KI1PTY3ZPuz4yPuYzxjC-8" value="RESOURCE POLICY" style="outlineConnect=0;fontColor=#232F3E;gradientColor=none;fillColor=#C7131F;strokeColor=none;dashed=0;verticalLabelPosition=bottom;verticalAlign=top;align=center;html=1;fontSize=12;fontStyle=0;aspect=fixed;pointerEvents=1;shape=mxgraph.aws4.permissions;" parent="KI1PTY3ZPuz4yPuYzxjC-1" vertex="1">
          <mxGeometry x="920" y="390" width="62" height="78" as="geometry" />
        </mxCell>
        <mxCell id="hqfQ0Pbsx5e-iG8ScJoP-0" value="" style="shape=flexArrow;endArrow=classic;html=1;" edge="1" parent="KI1PTY3ZPuz4yPuYzxjC-1">
          <mxGeometry width="50" height="50" relative="1" as="geometry">
            <mxPoint x="210" y="330" as="sourcePoint" />
            <mxPoint x="920" y="330" as="targetPoint" />
          </mxGeometry>
        </mxCell>
      </root>
    </mxGraphModel>
  </diagram>
</mxfile>
